<svg width="22" height="19" viewBox="0 0 22 19" fill="none" xmlns="http://www.w3.org/2000/svg">
<path fill-rule="evenodd" clip-rule="evenodd" d="M10.9725 17.3682C7.73349 17.3682 4.96649 16.8782 4.96649 14.9162C4.96649 12.9542 7.71549 11.2462 10.9725 11.2462C14.2115 11.2462 16.9785 12.9382 16.9785 14.8992C16.9785 16.8602 14.2295 17.3682 10.9725 17.3682Z" stroke="#828282" stroke-width="1.5" stroke-linecap="round" stroke-linejoin="round"/>
<path fill-rule="evenodd" clip-rule="evenodd" d="M10.9725 8.4487C13.0985 8.4487 14.8225 6.7257 14.8225 4.5997C14.8225 2.4737 13.0985 0.749702 10.9725 0.749702C8.84653 0.749702 7.12251 2.4737 7.12251 4.5997C7.11653 6.7177 8.82653 8.4417 10.9455 8.4487H10.9725Z" stroke="#828282" stroke-width="1.5" stroke-linecap="round" stroke-linejoin="round"/>
<path d="M17.3622 7.3916C18.5992 7.0606 19.5112 5.9326 19.5112 4.5896C19.5112 3.1886 18.5182 2.0186 17.1962 1.7486" stroke="#828282" stroke-width="1.5" stroke-linecap="round" stroke-linejoin="round"/>
<path d="M17.9432 10.5444C19.6972 10.5444 21.1952 11.7334 21.1952 12.7954C21.1952 13.4204 20.6782 14.1014 19.8942 14.2854" stroke="#828282" stroke-width="1.5" stroke-linecap="round" stroke-linejoin="round"/>
<path d="M4.58384 7.3916C3.34584 7.0606 2.43384 5.9326 2.43384 4.5896C2.43384 3.1886 3.42784 2.0186 4.74884 1.7486" stroke="#828282" stroke-width="1.5" stroke-linecap="round" stroke-linejoin="round"/>
<path d="M4.00182 10.5444C2.24782 10.5444 0.749817 11.7334 0.749817 12.7954C0.749817 13.4204 1.26682 14.1014 2.05182 14.2854" stroke="#828282" stroke-width="1.5" stroke-linecap="round" stroke-linejoin="round"/>
</svg>
