<svg width="22" height="22" viewBox="0 0 22 22" fill="none" xmlns="http://www.w3.org/2000/svg">
<path d="M11 0.333313C8.89033 0.333313 6.82804 0.958902 5.07392 2.13097C3.31979 3.30304 1.95262 4.96894 1.14528 6.91802C0.33795 8.8671 0.126714 11.0118 0.53829 13.0809C0.949866 15.1501 1.96577 17.0507 3.45753 18.5425C4.94929 20.0342 6.84991 21.0501 8.91904 21.4617C10.9882 21.8733 13.1329 21.662 15.082 20.8547C17.031 20.0474 18.6969 18.6802 19.869 16.9261C21.0411 15.1719 21.6667 13.1096 21.6667 11C21.6667 8.171 20.5429 5.4579 18.5425 3.45751C16.5421 1.45712 13.829 0.333313 11 0.333313ZM11.04 12.12C10.9274 12.1209 10.8157 12.0994 10.7114 12.0569C10.6071 12.0145 10.5122 11.9517 10.4323 11.8724C10.3523 11.7931 10.2889 11.6987 10.2456 11.5947C10.2023 11.4908 10.18 11.3793 10.18 11.2666V4.76665C10.18 4.53856 10.2706 4.31982 10.4319 4.15853C10.5932 3.99725 10.8119 3.90665 11.04 3.90665C11.2681 3.90665 11.4868 3.99725 11.6481 4.15853C11.8094 4.31982 11.9 4.53856 11.9 4.76665V11.2666C11.9 11.3793 11.8777 11.4908 11.8344 11.5947C11.7911 11.6987 11.7277 11.7931 11.6477 11.8724C11.5678 11.9517 11.4729 12.0145 11.3686 12.0569C11.2643 12.0994 11.1526 12.1209 11.04 12.12ZM11 17.5266C9.59587 17.5433 8.22318 17.1107 7.08225 16.2921C5.94132 15.4734 5.09187 14.3116 4.65788 12.9761C4.22388 11.6406 4.22806 10.2014 4.66979 8.86847C5.11151 7.53553 5.96768 6.37864 7.11333 5.56665C7.31288 5.42441 7.56036 5.36636 7.80234 5.40503C8.04432 5.4437 8.26138 5.57598 8.40667 5.77331C8.47759 5.87076 8.52853 5.98129 8.55654 6.09852C8.58455 6.21575 8.58908 6.33736 8.56986 6.45635C8.55065 6.57533 8.50808 6.68934 8.4446 6.7918C8.38112 6.89426 8.29799 6.98314 8.2 7.05331C7.54103 7.53727 7.017 8.18194 6.67787 8.92588C6.33874 9.66983 6.19582 10.4882 6.26273 11.3031C6.32964 12.1179 6.60416 12.9021 7.0601 13.5807C7.51605 14.2594 8.13823 14.8099 8.86732 15.1799C9.59642 15.5499 10.4081 15.7269 11.2251 15.6942C12.042 15.6614 12.8369 15.42 13.5341 14.9928C14.2312 14.5657 14.8073 13.9671 15.2075 13.2541C15.6077 12.5412 15.8185 11.7376 15.82 10.92C15.8178 10.1667 15.635 9.42487 15.287 8.75675C14.939 8.08862 14.436 7.51364 13.82 7.07998C13.6303 6.9303 13.5077 6.71155 13.479 6.47165C13.4502 6.23174 13.5177 5.99023 13.6667 5.79998C13.8139 5.60474 14.0319 5.4751 14.2738 5.43894C14.5157 5.40279 14.7621 5.46301 14.96 5.60665C16.0937 6.42795 16.9362 7.58909 17.3653 8.92162C17.7945 10.2541 17.7879 11.6887 17.3465 13.0173C16.9052 14.3458 16.052 15.4992 14.9108 16.31C13.7696 17.1208 12.3998 17.547 11 17.5266Z" fill="#828282"/>
</svg>
