<svg width="24" height="24" viewBox="0 0 24 24" fill="none" xmlns="http://www.w3.org/2000/svg">
<path d="M2.25 2.78858V21.2105C2.25012 21.2504 2.26204 21.2895 2.28427 21.3227C2.30649 21.3559 2.33803 21.3818 2.37492 21.3972C2.41182 21.4126 2.45243 21.4167 2.49166 21.4091C2.5309 21.4015 2.56701 21.3824 2.59547 21.3544L12.1875 12L2.59547 2.64468C2.56701 2.61662 2.5309 2.59758 2.49166 2.58997C2.45243 2.58235 2.41182 2.58648 2.37492 2.60185C2.33803 2.61722 2.30649 2.64314 2.28427 2.67636C2.26204 2.70958 2.25012 2.74862 2.25 2.78858Z" fill="white"/>
<path d="M16.2093 8.15624L4.18216 1.52999L4.17466 1.52577C3.96747 1.41327 3.7706 1.69358 3.94028 1.85671L13.3683 10.8717L16.2093 8.15624Z" fill="white"/>
<path d="M3.94126 22.1433C3.77063 22.3064 3.96751 22.5867 4.17563 22.4742L4.18313 22.47L16.2094 15.8438L13.3683 13.1273L3.94126 22.1433Z" fill="white"/>
<path d="M21.0647 10.8281L17.7061 8.97842L14.5481 12L17.7061 15.0201L21.0647 13.1719C21.9783 12.667 21.9783 11.333 21.0647 10.8281Z" fill="white"/>
</svg>
