<svg width="86" height="62" viewBox="0 0 86 62" fill="none" xmlns="http://www.w3.org/2000/svg">
<path d="M79.443 60.7552C79.427 60.819 79.4271 60.9148 79.4111 61.0105C79.3951 61.1063 79.3951 61.218 79.3792 61.3138C79.3632 61.4255 79.3632 61.5212 79.3473 61.5851L79.3313 61.7606L81.5815 62V60.9786L79.4749 60.6116C79.459 60.6435 79.443 60.6754 79.443 60.7552Z" fill="#262626"/>
<path d="M76.5065 51.8821H76.4587H72.9477H72.8679H59.3348H59.3029H55.7282H55.6803H46.6476V52.9514H52.9194V53.1748C52.3449 53.2386 51.7384 53.4301 51.1001 53.7333C50.4617 54.0366 49.8713 54.4834 49.3287 55.042C48.7861 55.6165 48.3392 56.3027 47.9881 57.1485C47.637 57.9784 47.4615 58.9519 47.4455 60.069L55.2334 60.9786V52.9354H55.6643H55.7122H56.5101V60.6275L58.8242 60.9946V52.9514H59.271V52.9673H64.2023L63.6597 57.0209L67.011 56.6698C67.011 56.6857 66.9951 56.7974 66.9472 56.973C66.9153 57.1485 66.8195 57.34 66.6599 57.5475C66.5004 57.755 66.2769 57.9465 65.9577 58.122C65.6386 58.2976 65.2077 58.3773 64.6332 58.3773C64.1863 58.3614 63.8352 58.2497 63.5639 58.0741C63.2926 57.8826 63.0852 57.6432 62.9415 57.356C62.7979 57.0687 62.7022 56.7336 62.6543 56.3665C62.6064 55.9995 62.5745 55.6165 62.5745 55.2335C62.5745 55.1856 62.5745 55.1218 62.5904 55.0579C62.5904 54.9941 62.6064 54.9302 62.6064 54.8824L60.1328 54.3238C60.1487 55.2335 60.2445 56.0793 60.42 56.8613C60.5956 57.6432 60.8509 58.3295 61.218 58.904C61.585 59.4785 62.0319 59.9254 62.6064 60.2605C63.165 60.5797 63.8512 60.7552 64.6651 60.7552C65.2875 60.7552 65.878 60.6595 66.4365 60.4679C66.9951 60.2764 67.4898 59.9892 67.9207 59.6221C68.3516 59.2551 68.6867 58.8082 68.958 58.2816C69.2134 57.755 69.341 57.1485 69.341 56.4942C69.341 56.191 69.341 55.9516 69.3251 55.7761C69.3091 55.6005 69.2931 55.4728 69.2772 55.3771C69.2612 55.2973 69.2453 55.2335 69.2293 55.2015C69.2133 55.1696 69.2133 55.1377 69.2133 55.1058L65.7024 55.6324L65.878 54.7228L69.8517 54.627C69.8996 54.9941 69.9475 55.3452 69.9794 55.6803C70.0113 56.0154 70.0272 56.3346 70.0272 56.6538C70.0272 57.4039 69.9634 58.0582 69.8517 58.6167C69.724 59.1753 69.5964 59.6381 69.4208 60.0211L69.0697 60.7871L71.4635 61.5691C71.8306 60.7871 72.0859 60.0051 72.2296 59.2232C72.3732 58.4412 72.437 57.6273 72.437 56.7815C72.437 56.3985 72.4211 56.0474 72.4051 55.7122C72.3892 55.3771 72.3572 55.0739 72.2934 54.7707L72.1019 53.5418H66.1173L66.229 52.9833H72.9317V52.9673H73.6978V60.6595L76.0118 61.0265V52.9833H76.4427H76.4906H82.7464V53.2227C82.2038 53.2705 81.6133 53.462 80.975 53.7493C80.3366 54.0525 79.7462 54.4834 79.2036 55.042C78.661 55.6005 78.2141 56.3027 77.8471 57.1326C77.48 57.9624 77.2885 58.9519 77.2885 60.1009L85.0764 61.0265V52.9673H85.5871V51.8981H76.5065V51.8821ZM52.9354 59.5902L49.8872 58.9838C49.8872 58.8082 49.9351 58.5529 50.0309 58.1858C50.1266 57.8347 50.3181 57.4517 50.5894 57.0368C50.9565 56.5421 51.3554 56.191 51.7863 55.9516C52.2172 55.7122 52.6002 55.5686 52.9194 55.5048V59.5902H52.9354ZM82.7783 59.6062L79.7302 58.9838C79.7302 58.8082 79.7781 58.5529 79.8738 58.1858C79.9696 57.8347 80.1611 57.4517 80.4324 57.0368C80.7994 56.5421 81.1984 56.191 81.6293 55.9516C82.0602 55.7282 82.4432 55.5686 82.7624 55.4888V59.6062H82.7783Z" fill="#262626"/>
<path d="M44.5251 15.5119C46.6636 15.5119 48.4989 14.7459 50.015 13.2458C51.5151 11.7457 52.2811 9.89443 52.2811 7.75595C52.2811 5.63343 51.5151 3.78221 50.015 2.26612C48.5149 0.76599 46.6636 -3.05176e-05 44.5251 -3.05176e-05C42.3867 -3.05176e-05 40.5514 0.76599 39.0353 2.26612C37.5352 3.76625 36.7692 5.61747 36.7692 7.75595C36.7692 9.89443 37.5352 11.7297 39.0353 13.2458C40.5514 14.7459 42.3867 15.5119 44.5251 15.5119Z" fill="#E53325"/>
<path d="M32.157 22.6934C31.9815 22.6934 31.79 22.6934 31.6144 22.6934C31.7421 21.9752 31.9177 21.289 32.1092 20.6666C32.3166 20.0123 32.6039 19.3739 32.955 18.7515C33.322 18.1132 33.737 17.5546 34.2157 17.0918C34.7105 16.6131 35.3328 16.2301 36.035 15.9428C36.7372 15.6555 37.5192 15.5279 38.365 15.5279C38.7002 15.5279 39.0034 15.6555 39.6258 16.0545C40.0088 16.3098 40.4556 16.5811 40.9344 16.9003C41.3493 17.1716 41.9238 17.427 42.626 17.6504C43.3123 17.8738 44.0144 17.9855 44.7007 17.9855C45.3869 17.9855 46.0891 17.8738 46.7753 17.6504C47.4775 17.427 48.052 17.1716 48.4669 16.9003C48.9617 16.5811 49.4085 16.2939 49.7756 16.0545C50.398 15.6555 50.7012 15.5279 51.0363 15.5279C51.8662 15.5279 52.6482 15.6715 53.3663 15.9428C54.0685 16.2301 54.6909 16.6131 55.1856 17.0918C55.6644 17.5546 56.0953 18.0972 56.4464 18.7515C56.7974 19.3739 57.0847 20.0123 57.2922 20.6666C57.4837 21.289 57.6592 21.9593 57.7869 22.6774H40.6471V24.7042C40.1684 24.4648 39.6736 24.2414 39.163 24.0339C38.1416 23.619 37.0085 23.2838 35.8435 23.0445C34.8062 22.837 33.737 22.7093 32.6677 22.6774H32.6358C32.4762 22.6934 32.3166 22.6934 32.157 22.6934Z" fill="#E53325"/>
<path d="M25.5181 28.1677L25.5981 27.9279V28.1677C25.5821 28.1677 25.5501 28.1677 25.5181 28.1677Z" fill="#E53325"/>
<path d="M65.2556 24.9276C65.2077 24.8957 65.1758 24.8957 65.1598 24.9276C65.3513 24.6085 65.6865 24.3052 66.1812 24.0339C66.6759 23.7626 67.394 23.619 68.3516 23.619C68.7346 23.619 69.1336 23.635 69.5804 23.6829C70.0113 23.7307 70.4262 23.7467 70.8092 23.7467C72.1976 23.7467 73.3626 23.5552 74.2882 23.1722C74.6393 23.0285 74.9745 22.869 75.2777 22.6934C75.7724 22.4061 76.2033 22.087 76.5704 21.7359C77.1768 21.1614 77.6236 20.5549 77.9428 19.9006C78.262 19.2463 78.4854 18.6399 78.6131 18.0973L73.7935 16.0865C73.7935 16.6291 73.4265 17.2036 72.6924 17.81C72.2615 18.193 71.671 18.3845 70.9369 18.3845C70.5539 18.3845 70.139 18.3526 69.6921 18.3047C69.2453 18.2409 68.8303 18.2249 68.4473 18.2249C66.4525 18.2249 64.8406 18.592 63.5799 19.3101C62.3351 20.0283 61.3776 20.8901 60.7233 21.8635L61.202 22.6934L62.4787 24.9276H58.9199H49.8872H42.8973V28.8056C42.3227 28.3109 41.6525 27.8321 40.8705 27.3693C40.0885 26.9065 39.2427 26.4916 38.333 26.1245C37.4234 25.7575 36.4339 25.4702 35.3966 25.2468C34.487 25.0553 33.5614 24.9596 32.6198 24.9276H32.1889C31.9016 24.9276 31.6303 24.9276 31.375 24.9436C30.7845 24.9596 30.2738 24.9915 29.811 25.0553L28.8216 25.183C28.5822 25.8852 28.3747 26.4916 28.2311 27.0023C28.0875 27.513 27.9279 28.0237 27.7683 28.5503C27.6087 29.0769 27.4651 29.5238 27.3534 29.8749L27.2257 30.4015C27.6087 31.1675 27.9119 31.9016 28.1194 32.5879C28.3428 33.2741 28.5343 34.1199 28.7258 35.0774C28.9173 36.0509 29.0131 37.1202 29.0131 38.2852C29.0131 38.9714 28.9652 39.6736 28.8854 40.4077L31.391 41.1577L34.072 41.9557L42.5302 34.7263L42.8494 35.253V46.8072L48.6903 47.7009V27.5928H49.8393H51.8821V46.8072L57.6911 47.7009V27.5928H58.7603H60.8828V46.855L62.5904 47.1264L62.6064 45.4028C62.6383 42.243 63.165 39.4661 64.2023 37.1042C64.9045 35.5083 65.7343 34.072 66.6759 32.8113V27.5928H67.9366H78.4854V28.1992C77.1289 28.3428 75.6447 28.7737 74.0489 29.5238C72.453 30.2738 70.9848 31.3431 69.6283 32.7475C68.4792 33.9444 67.4898 35.3807 66.6599 37.0563C66.5163 37.3596 66.3727 37.6628 66.229 37.982C65.3194 40.0726 64.8406 42.5462 64.8247 45.4028L66.6599 45.6262L84.2785 47.7328V27.5928H85.5392V24.9276H65.2556ZM34.9498 36.5776C34.9179 36.035 34.854 35.3966 34.7264 34.6785C34.5987 33.9603 34.471 33.2741 34.3433 32.6198C34.2635 32.2368 34.1838 31.8857 34.104 31.5665C34.0401 31.3431 33.9922 31.1197 33.9284 30.9282C33.7848 30.4494 33.705 30.1781 33.689 30.1302C34.9498 30.194 36.0828 30.3536 37.1202 30.6409C38.0458 30.8962 39.0033 31.4229 40.0247 32.2049C40.1523 32.3006 40.2641 32.3964 40.3917 32.5081L34.9498 36.5776ZM78.5333 44.2697L70.9209 42.7217C70.9209 42.2908 71.0327 41.6206 71.272 40.7428C71.5114 39.8651 71.9742 38.8916 72.6764 37.8543C73.602 36.6255 74.6074 35.7318 75.6767 35.1572C76.7619 34.5827 77.7034 34.1997 78.5173 34.0082V44.2697H78.5333Z" fill="#E53325"/>
<path d="M70.1868 47.1104C70.1549 47.2859 70.123 47.4934 70.107 47.7487C70.0751 47.9881 70.0591 48.2594 70.0272 48.5307C69.9953 48.802 69.9634 49.0414 69.9474 49.2329L69.8995 49.6798L75.549 50.2862V47.7487L70.2666 46.855C70.2347 46.855 70.2187 46.9348 70.1868 47.1104Z" fill="#E53325"/>
<path d="M25.2149 31.4069L24.8638 30.6887L25.183 29.3003L25.5341 28.1672C24.1137 28.3428 22.6136 28.8056 21.0496 29.5716C19.4538 30.3536 17.9856 31.4548 16.6291 32.8591C15.2885 34.2795 14.1714 36.0349 13.2937 38.1096C12.4159 40.2002 11.9691 42.6259 11.9531 45.4028L31.4229 47.6849V43.4877L26.4756 42.0035L26.6831 40.1523C26.7469 39.498 26.7948 38.8756 26.7948 38.2692C26.7948 37.2478 26.715 36.3222 26.5554 35.4923C26.3799 34.6146 26.1884 33.8486 25.9969 33.2421C25.8054 32.6836 25.5341 32.0612 25.2149 31.4069ZM25.5979 44.2378L17.9856 42.7217C17.9856 42.2908 18.0973 41.6205 18.3366 40.7428C18.576 39.865 19.0388 38.8916 19.741 37.8542C20.6666 36.6254 21.672 35.7158 22.7413 35.1412C23.8265 34.5508 24.7681 34.1837 25.582 34.0241V44.2378H25.5979Z" fill="#E53325"/>
<path d="M10.4211 47.7009C9.08057 46.5518 8.01132 45.1155 7.21338 43.3601C6.41544 41.6206 6.00051 39.6736 6.00051 37.5511C6.00051 35.5881 6.36756 33.7369 7.10167 32.0134C7.83578 30.2898 8.88906 28.8056 10.2456 27.5768H10.7722H25.566V27.9119L25.582 27.88C25.7416 27.3534 25.9012 26.8427 26.0448 26.348C26.1725 25.933 26.3161 25.4702 26.5076 24.9276H10.7722H9.87851H4.50039L2.95238 27.2098C1.91506 28.7418 1.16499 30.3696 0.718147 32.1091C0.2713 33.8486 0.0319176 35.6679 0 37.5511C0 41.3173 0.92561 44.7006 2.77683 47.6849C2.77683 47.6849 13.5171 63.4203 42.3707 58.6007C42.3707 58.6007 43.5995 55.7282 45.4986 53.7971C45.4986 53.8291 23.2839 58.0422 10.4211 47.7009Z" fill="#E53325"/>
</svg>
