<?xml version="1.0" encoding="utf-8"?>
<!-- Generator: Adobe Illustrator 18.1.1, SVG Export Plug-In . SVG Version: 6.00 Build 0)  -->
<svg version="1.1" id="Layer_1" xmlns="http://www.w3.org/2000/svg" xmlns:xlink="http://www.w3.org/1999/xlink" x="0px" y="0px"
	 viewBox="0 0 512 512" enable-background="new 0 0 512 512" xml:space="preserve">
<rect fill="#FFFFFF" width="512" height="512"/>
<g>
	<g>
		<path fill="#262626" d="M413,383.5c0,0.3-0.1,0.7-0.1,1.1c0,0.4-0.1,0.9-0.1,1.3c0,0.5-0.1,0.9-0.1,1.2l-0.1,0.8l9.7,1.1v-4.3
			l-9-1.5C413.1,383,413.1,383.2,413,383.5z"/>
		<path fill="#262626" d="M400.5,345.5h-0.2h-15.1h-0.4h-58h-0.1h-15.3h-0.2h-38.7v4.6h26.9v1c-2.5,0.3-5.1,1.1-7.8,2.4
			c-2.7,1.3-5.3,3.2-7.6,5.6c-2.3,2.4-4.2,5.4-5.7,9c-1.5,3.6-2.3,7.7-2.3,12.5l33.4,3.9V350h1.8h0.2h3.4V383l10,1.5V350h1.9v0.1
			h21.2l-2.3,17.4l14.4-1.5c0,0.1-0.1,0.5-0.2,1.3c-0.2,0.8-0.6,1.6-1.2,2.5c-0.7,0.9-1.7,1.7-3,2.5c-1.4,0.7-3.2,1.1-5.7,1.1
			c-1.9-0.1-3.4-0.5-4.6-1.3c-1.1-0.8-2-1.8-2.7-3.1c-0.6-1.3-1.1-2.7-1.3-4.2c-0.2-1.6-0.3-3.2-0.3-4.9c0-0.2,0-0.5,0-0.8
			c0-0.3,0-0.5,0-0.8l-10.6-2.4c0.1,3.9,0.5,7.5,1.2,10.9c0.7,3.4,1.9,6.3,3.4,8.7c1.5,2.5,3.5,4.4,5.9,5.8c2.4,1.4,5.3,2.1,8.8,2.1
			c2.7,0,5.2-0.4,7.6-1.3c2.4-0.8,4.5-2,6.4-3.6c1.8-1.6,3.3-3.5,4.4-5.7c1.1-2.3,1.6-4.8,1.6-7.7c0-1.3,0-2.3-0.1-3.1
			c0-0.7-0.1-1.3-0.2-1.7c-0.1-0.4-0.1-0.6-0.2-0.7c0-0.1-0.1-0.2-0.1-0.4l-15.1,2.2l0.8-3.9l17-0.4c0.2,1.6,0.4,3.1,0.5,4.5
			c0.1,1.4,0.2,2.8,0.2,4.2c0,3.2-0.3,6-0.8,8.4c-0.5,2.4-1.1,4.4-1.8,6l-1.5,3.3l10.2,3.4c1.6-3.4,2.7-6.7,3.3-10.1
			c0.6-3.3,0.9-6.8,0.9-10.5c0-1.6,0-3.2-0.1-4.6c-0.1-1.4-0.2-2.8-0.5-4l-0.8-5.3H356l0.5-2.4h28.7V350h3.3V383l10,1.5V350h1.8h0.2
			h26.8v1.1c-2.3,0.2-4.9,1-7.6,2.3c-2.7,1.3-5.3,3.1-7.6,5.5c-2.3,2.4-4.3,5.4-5.8,9c-1.6,3.6-2.4,7.8-2.4,12.7l33.4,4V350h2.2
			v-4.6H400.5z M299.4,378.5l-13-2.6c0-0.7,0.2-1.9,0.6-3.4c0.4-1.5,1.2-3.2,2.4-4.9c1.6-2.1,3.3-3.7,5.2-4.7c1.8-1,3.5-1.6,4.9-1.9
			V378.5z M427.3,378.6l-13-2.7c0-0.7,0.2-1.9,0.6-3.4c0.4-1.5,1.2-3.2,2.4-4.9c1.6-2.1,3.3-3.6,5.2-4.6c1.8-1,3.5-1.6,4.9-2V378.6z
			"/>
	</g>
	<g>
		<g>
			<path fill="#E43325" d="M263.4,189.6c9.1,0,17-3.3,23.5-9.7c6.5-6.5,9.7-14.4,9.7-23.5c0-9.1-3.3-17-9.7-23.5
				c-6.5-6.5-14.4-9.7-23.5-9.7c-9.1,0-17,3.3-23.5,9.7c-6.5,6.5-9.7,14.4-9.7,23.5c0,9.1,3.3,17,9.7,23.5
				C246.3,186.3,254.3,189.6,263.4,189.6z"/>
			<path fill="#E43325" d="M210.4,220.4c-0.8,0-1.6,0-2.3,0c0.6-3.1,1.3-6,2.1-8.7c0.9-2.8,2.1-5.5,3.6-8.2c1.6-2.7,3.4-5.1,5.4-7.1
				c2.1-2.1,4.8-3.7,7.8-4.9c3-1.2,6.4-1.8,10-1.8c1.4,0,2.8,0.6,5.4,2.3c1.6,1.1,3.5,2.3,5.6,3.6c1.8,1.2,4.3,2.2,7.3,3.2
				c3,1,5.9,1.4,8.9,1.4c3,0,6-0.5,8.9-1.4c3-1,5.5-2.1,7.3-3.2c2.1-1.3,4-2.6,5.6-3.6c2.6-1.7,4-2.3,5.4-2.3c3.6,0,6.9,0.6,10,1.8
				c3,1.2,5.7,2.9,7.8,4.9c2.1,2,3.9,4.3,5.4,7.1c1.5,2.6,2.7,5.4,3.6,8.2c0.9,2.7,1.6,5.6,2.1,8.6h-73.7v8.7c-2.1-1-4.2-2-6.4-2.9
				c-4.4-1.8-9.2-3.2-14.3-4.3c-4.4-0.9-9-1.4-13.6-1.6h-0.1C211.7,220.4,211.1,220.4,210.4,220.4z"/>
		</g>
		<path fill="#E43325" d="M181.9,243.8l0.3-1v1C182.2,243.8,182,243.8,181.9,243.8z"/>
		<g>
			<g>
				<path fill="#E43325" d="M352.2,230c-0.2-0.1-0.3-0.1-0.4,0c0.8-1.4,2.3-2.7,4.4-3.8c2.1-1.2,5.2-1.8,9.3-1.8
					c1.6,0,3.4,0.1,5.3,0.3c1.9,0.2,3.6,0.3,5.3,0.3c6,0,10.9-0.8,14.9-2.5c1.5-0.6,2.9-1.3,4.2-2.1c2.1-1.2,4-2.6,5.6-4.1
					c2.6-2.5,4.5-5.1,5.9-7.9c1.3-2.8,2.3-5.4,2.9-7.7l-20.7-8.6c0,2.3-1.6,4.8-4.7,7.4c-1.9,1.6-4.4,2.5-7.5,2.5
					c-1.6,0-3.4-0.1-5.3-0.3c-1.9-0.2-3.7-0.4-5.3-0.4c-8.5,0-15.5,1.6-20.9,4.6c-5.4,3.1-9.5,6.7-12.3,11l2,3.6l5.5,9.6H325v0
					h-38.7h-30v16.6c-2.5-2.1-5.3-4.1-8.7-6.1c-3.3-2-6.9-3.8-10.9-5.3c-3.9-1.6-8.1-2.8-12.6-3.8c-3.9-0.8-7.9-1.3-11.9-1.4v0h-1.8
					c-1.2,0-2.4,0-3.5,0c-2.5,0.1-4.7,0.2-6.7,0.5L196,231c-1.1,3-1.9,5.6-2.5,7.8c-0.6,2.2-1.3,4.4-2,6.7c-0.7,2.3-1.3,4.2-1.8,5.7
					l-0.5,2.3c1.6,3.3,2.9,6.4,3.9,9.4c0.9,3,1.8,6.5,2.6,10.7c0.8,4.2,1.2,8.7,1.2,13.8c0,2.9-0.2,6-0.5,9.1l10.8,3.2l11.5,3.4
					l36.3-31l1.4,2.3v49.4l25.1,3.9v-86.2h4.9h8.8v82.4l24.9,3.9v-86.2h4.6v0h9.1v82.5l7.3,1.1l0.1-7.4c0.1-13.5,2.4-25.5,6.8-35.6
					c3-6.8,6.6-13,10.6-18.4v-22.4h5.4v0h45.2v2.6c-5.8,0.6-12.2,2.5-19,5.7c-6.8,3.2-13.1,7.8-18.9,13.9
					c-4.9,5.1-9.1,11.3-12.7,18.5c-0.6,1.3-1.3,2.6-1.8,4c-3.9,8.9-5.9,19.5-6,31.8l7.9,0.9l75.5,9v-86.4h5.4V230H352.2z
					 M222.3,279.9c-0.1-2.3-0.4-5.1-1-8.1c-0.5-3.1-1.1-6-1.7-8.8c-0.3-1.6-0.7-3.2-1-4.5c-0.2-1-0.5-1.9-0.7-2.7
					c-0.6-2-0.9-3.2-1.1-3.4c5.4,0.2,10.3,1,14.7,2.2c4,1.1,8.1,3.3,12.4,6.7c0.5,0.4,1.1,0.8,1.6,1.3L222.3,279.9z M409.1,312.9
					l-32.6-6.7c0-1.9,0.5-4.7,1.5-8.5c1-3.8,3-7.9,6-12.4c4-5.3,8.3-9.1,12.9-11.6c4.6-2.5,8.7-4.1,12.2-4.9V312.9z"/>
				<path fill="#E43325" d="M373.4,325c-0.1,0.8-0.2,1.7-0.4,2.7c-0.1,1.1-0.2,2.2-0.3,3.3c-0.1,1.2-0.2,2.2-0.4,3l-0.2,1.9
					l24.2,2.6v-10.9l-22.6-3.9C373.6,323.9,373.5,324.3,373.4,325z"/>
			</g>
			<g>
				<path fill="#E43325" d="M180.6,257.7l-1.5-3.1l1.4-6l1.5-4.8c-6.1,0.7-12.5,2.7-19.2,6c-6.8,3.3-13.1,8-18.9,14.1
					c-5.8,6.1-10.5,13.6-14.3,22.5c-3.7,8.9-5.7,19.4-5.8,31.3l83.4,9.8v-18l-21.2-6.3l0.9-7.9c0.3-2.8,0.5-5.5,0.5-8.1
					c0-4.4-0.3-8.4-1-11.9c-0.7-3.8-1.5-7-2.4-9.7C183.1,263.2,182,260.5,180.6,257.7z M182.3,312.7l-32.6-6.5
					c0-1.9,0.5-4.7,1.5-8.5c1-3.8,3-7.9,6-12.4c4-5.3,8.3-9.1,12.9-11.7c4.6-2.5,8.7-4.1,12.2-4.8V312.7z"/>
				<path fill="#E43325" d="M117.2,327.6c-5.7-4.9-10.3-11.1-13.8-18.6c-3.5-7.5-5.2-15.8-5.2-24.9c0-8.4,1.6-16.3,4.7-23.7
					c3.2-7.4,7.6-13.8,13.5-19h2.3h63.4v1.4l0-0.2c0.7-2.2,1.4-4.4,2-6.6c0.5-1.8,1.2-3.8,2-6.1h-67.4H115H91.8l-6.7,9.8
					c-4.4,6.5-7.6,13.6-9.6,21c-1.9,7.5-3,15.2-3.1,23.3c0,16.1,4,30.6,11.9,43.5c0,0,46.1,67.4,169.7,46.8c0,0,5.3-12.3,13.4-20.6
					C267.6,353.8,172.4,371.9,117.2,327.6z"/>
			</g>
		</g>
	</g>
</g>
</svg>
